<svg width="637" height="898" viewBox="0 0 637 898" fill="none" xmlns="http://www.w3.org/2000/svg">
<rect width="597.383" height="968.972" transform="matrix(0.999142 0.041424 -0.0649249 0.99789 126.958 -42.078)" fill="#9978FF"/>
<path d="M428.187 1174.25C411.238 1190.09 384.66 1189.18 368.825 1172.23L57.6727 839.187C41.8373 822.238 42.7405 795.66 59.6902 779.825L551.293 320.538C568.243 304.703 594.82 305.606 610.656 322.556L921.808 655.601C937.643 672.551 936.74 699.129 919.79 714.964L428.187 1174.25Z" fill="#7F5AF0"/>
<path d="M0 -17.2929L593.626 -160L640.936 -13.2033L88.1466 119.687C65.5932 125.109 41.542 111.606 34.4267 89.5286L0 -17.2929Z" fill="#7F5AF0"/>
<rect x="188" y="175" width="183" height="243" rx="20" fill="#16161A"/>
<rect x="188" y="464" width="366" height="205" rx="20" fill="#16161A"/>
<rect x="334.5" y="617.5" width="19" height="19" stroke="#94A1B2"/>
<path d="M338.167 632.833V621.167M349.833 633.667L341.5 627L349.833 620.333V633.667Z" stroke="white" stroke-width="2" stroke-linecap="round" stroke-linejoin="round"/>
<rect x="-0.5" y="0.5" width="19" height="19" transform="matrix(-1 0 0 1 407 617)" stroke="#94A1B2"/>
<path d="M403.833 632.833V621.167M392.167 633.667L400.5 627L392.167 620.333V633.667Z" stroke="white" stroke-width="2" stroke-linecap="round" stroke-linejoin="round"/>
<rect x="361.5" y="617.5" width="19" height="19" stroke="#94A1B2"/>
<path d="M365.167 619.5L376.833 627L365.167 634.5V619.5Z" stroke="white" stroke-width="2" stroke-linecap="round" stroke-linejoin="round"/>
<path d="M224 608H518" stroke="#94A1B2" stroke-width="3" stroke-linecap="round"/>
<rect x="461" y="345" width="63" height="63" rx="31.5" fill="#16161A"/>
<path d="M491 385C489.9 385 488.958 384.608 488.175 383.825C487.392 383.042 487 382.1 487 381C487 379.9 487.392 378.958 488.175 378.175C488.958 377.392 489.9 377 491 377C491.383 377 491.733 377.05 492.05 377.15C492.383 377.233 492.7 377.367 493 377.55V367H499V371H495V381C495 382.1 494.608 383.042 493.825 383.825C493.042 384.608 492.1 385 491 385Z" fill="#9978FF"/>
<rect x="418" y="211" width="63" height="63" rx="31.5" fill="#16161A"/>
<path d="M445.5 251V231.5L463.5 228.5V248M445.5 251C445.5 253.485 443.485 255.5 441 255.5C438.515 255.5 436.5 253.485 436.5 251C436.5 248.515 438.515 246.5 441 246.5C443.485 246.5 445.5 248.515 445.5 251ZM463.5 248C463.5 250.485 461.485 252.5 459 252.5C456.515 252.5 454.5 250.485 454.5 248C454.5 245.515 456.515 243.5 459 243.5C461.485 243.5 463.5 245.515 463.5 248Z" stroke="#9978FF" stroke-width="4" stroke-linecap="round" stroke-linejoin="round"/>
</svg>
